<svg xmlns="http://www.w3.org/2000/svg" xmlns:xlink="http://www.w3.org/1999/xlink" width="600" zoomAndPan="magnify" viewBox="0 0 450 89.999999" height="120" preserveAspectRatio="xMidYMid meet" version="1.0"><defs><g/><clipPath id="40426e9c67"><rect x="0" width="372" y="0" height="90"/></clipPath><clipPath id="07570fff83"><path d="M 2.226562 9.722656 L 72.726562 9.722656 L 72.726562 80.222656 L 2.226562 80.222656 Z M 2.226562 9.722656 " clip-rule="nonzero"/></clipPath></defs><g transform="matrix(1, 0, 0, 1, 78, -0.00000000000000949)"><g clip-path="url(#40426e9c67)"><g fill="#008051" fill-opacity="1"><g transform="translate(0.300116, 74.796819)"><g><path d="M 49.328125 -13.3125 C 50.398438 -13.3125 51.125 -13.070312 51.5 -12.59375 C 51.882812 -12.113281 52.078125 -11.429688 52.078125 -10.546875 L 52.078125 -2.75 C 52.078125 -1.925781 51.882812 -1.257812 51.5 -0.75 C 51.125 -0.25 50.398438 0 49.328125 0 L 9.796875 0 C 8.710938 0 7.976562 -0.25 7.59375 -0.75 C 7.21875 -1.257812 7.03125 -1.925781 7.03125 -2.75 L 7.03125 -59.78125 C 7.03125 -60.863281 7.28125 -61.59375 7.78125 -61.96875 C 8.289062 -62.351562 8.960938 -62.546875 9.796875 -62.546875 L 19.203125 -62.546875 C 20.085938 -62.546875 20.765625 -62.351562 21.234375 -61.96875 C 21.710938 -61.59375 21.953125 -60.863281 21.953125 -59.78125 L 21.953125 -13.3125 Z M 49.328125 -13.3125 "/></g></g></g><g fill="#008051" fill-opacity="1"><g transform="translate(55.613018, 74.796819)"><g><path d="M 34.21875 -13.015625 C 35.289062 -13.015625 36.015625 -12.773438 36.390625 -12.296875 C 36.773438 -11.828125 36.96875 -11.148438 36.96875 -10.265625 L 36.96875 -2.75 C 36.96875 -1.925781 36.773438 -1.257812 36.390625 -0.75 C 36.015625 -0.25 35.289062 0 34.21875 0 L 7.3125 0 C 6.238281 0 5.507812 -0.25 5.125 -0.75 C 4.75 -1.257812 4.5625 -1.925781 4.5625 -2.75 L 4.5625 -10.265625 C 4.5625 -11.148438 4.75 -11.828125 5.125 -12.296875 C 5.507812 -12.773438 6.238281 -13.015625 7.3125 -13.015625 L 13.3125 -13.015625 L 13.3125 -49.328125 L 7.515625 -49.328125 C 6.429688 -49.328125 5.695312 -49.578125 5.3125 -50.078125 C 4.9375 -50.585938 4.75 -51.253906 4.75 -52.078125 L 4.75 -59.78125 C 4.75 -60.664062 4.9375 -61.347656 5.3125 -61.828125 C 5.695312 -62.304688 6.429688 -62.546875 7.515625 -62.546875 L 33.9375 -62.546875 C 35.007812 -62.546875 35.734375 -62.304688 36.109375 -61.828125 C 36.492188 -61.347656 36.6875 -60.664062 36.6875 -59.78125 L 36.6875 -52.078125 C 36.6875 -51.253906 36.492188 -50.585938 36.109375 -50.078125 C 35.734375 -49.578125 35.007812 -49.328125 33.9375 -49.328125 L 28.234375 -49.328125 L 28.234375 -13.015625 Z M 34.21875 -13.015625 "/></g></g></g><g fill="#008051" fill-opacity="1"><g transform="translate(97.810491, 74.796819)"><g><path d="M 56.9375 -62.546875 C 57.820312 -62.546875 58.390625 -62.242188 58.640625 -61.640625 C 58.898438 -61.035156 58.898438 -60.414062 58.640625 -59.78125 L 38.296875 -2.84375 C 37.734375 -1.644531 37.210938 -0.867188 36.734375 -0.515625 C 36.253906 -0.171875 35.476562 0 34.40625 0 L 25.28125 0 C 24.269531 0 23.507812 -0.171875 23 -0.515625 C 22.488281 -0.867188 21.953125 -1.644531 21.390625 -2.84375 L 0.953125 -59.78125 C 0.691406 -60.414062 0.6875 -61.035156 0.9375 -61.640625 C 1.195312 -62.242188 1.769531 -62.546875 2.65625 -62.546875 L 13.21875 -62.546875 C 14.476562 -62.546875 15.34375 -62.320312 15.8125 -61.875 C 16.289062 -61.425781 16.722656 -60.632812 17.109375 -59.5 L 30.03125 -20.15625 L 42.859375 -59.5 C 43.242188 -60.632812 43.6875 -61.425781 44.1875 -61.875 C 44.695312 -62.320312 45.585938 -62.546875 46.859375 -62.546875 Z M 56.9375 -62.546875 "/></g></g></g><g fill="#008051" fill-opacity="1"><g transform="translate(158.255516, 74.796819)"><g><path d="M 52.375 -13.3125 C 53.445312 -13.3125 54.171875 -13.070312 54.546875 -12.59375 C 54.929688 -12.113281 55.125 -11.429688 55.125 -10.546875 L 55.125 -2.75 C 55.125 -1.925781 54.929688 -1.257812 54.546875 -0.75 C 54.171875 -0.25 53.445312 0 52.375 0 L 9.796875 0 C 8.710938 0 7.976562 -0.25 7.59375 -0.75 C 7.21875 -1.257812 7.03125 -1.925781 7.03125 -2.75 L 7.03125 -59.78125 C 7.03125 -60.664062 7.21875 -61.347656 7.59375 -61.828125 C 7.976562 -62.304688 8.710938 -62.546875 9.796875 -62.546875 L 50.75 -62.546875 C 51.832031 -62.546875 52.5625 -62.304688 52.9375 -61.828125 C 53.320312 -61.347656 53.515625 -60.664062 53.515625 -59.78125 L 53.515625 -51.890625 C 53.515625 -51.066406 53.320312 -50.398438 52.9375 -49.890625 C 52.5625 -49.390625 51.832031 -49.140625 50.75 -49.140625 L 22.046875 -49.140625 L 22.046875 -38.78125 L 47.515625 -38.78125 C 48.597656 -38.78125 49.328125 -38.539062 49.703125 -38.0625 C 50.085938 -37.59375 50.28125 -36.910156 50.28125 -36.015625 L 50.28125 -28.609375 C 50.28125 -27.785156 50.085938 -27.117188 49.703125 -26.609375 C 49.328125 -26.109375 48.597656 -25.859375 47.515625 -25.859375 L 22.046875 -25.859375 L 22.046875 -13.3125 Z M 52.375 -13.3125 "/></g></g></g><g fill="#008051" fill-opacity="1"><g transform="translate(217.845181, 74.796819)"><g/></g></g><g fill="#008051" fill-opacity="1"><g transform="translate(243.600822, 74.796819)"><g><path d="M 55.3125 -62.546875 C 56.195312 -62.546875 56.878906 -62.351562 57.359375 -61.96875 C 57.835938 -61.59375 58.078125 -60.863281 58.078125 -59.78125 L 58.078125 -2.75 C 58.078125 -1.675781 57.835938 -0.945312 57.359375 -0.5625 C 56.878906 -0.1875 56.195312 0 55.3125 0 L 45.90625 0 C 45.082031 0 44.414062 -0.1875 43.90625 -0.5625 C 43.40625 -0.945312 43.15625 -1.675781 43.15625 -2.75 L 43.15625 -24.234375 L 21.953125 -24.234375 L 21.953125 -2.75 C 21.953125 -1.675781 21.710938 -0.945312 21.234375 -0.5625 C 20.765625 -0.1875 20.085938 0 19.203125 0 L 9.796875 0 C 8.960938 0 8.289062 -0.1875 7.78125 -0.5625 C 7.28125 -0.945312 7.03125 -1.675781 7.03125 -2.75 L 7.03125 -59.78125 C 7.03125 -60.863281 7.28125 -61.59375 7.78125 -61.96875 C 8.289062 -62.351562 8.960938 -62.546875 9.796875 -62.546875 L 19.203125 -62.546875 C 20.085938 -62.546875 20.765625 -62.351562 21.234375 -61.96875 C 21.710938 -61.59375 21.953125 -60.863281 21.953125 -59.78125 L 21.953125 -38.296875 L 43.15625 -38.296875 L 43.15625 -59.78125 C 43.15625 -60.863281 43.40625 -61.59375 43.90625 -61.96875 C 44.414062 -62.351562 45.082031 -62.546875 45.90625 -62.546875 Z M 55.3125 -62.546875 "/></g></g></g><g fill="#008051" fill-opacity="1"><g transform="translate(308.702761, 74.796819)"><g><path d="M 58.265625 -3.046875 C 58.703125 -2.410156 58.796875 -1.742188 58.546875 -1.046875 C 58.296875 -0.347656 57.726562 0 56.84375 0 L 45.625 0 C 44.476562 0 43.570312 -0.21875 42.90625 -0.65625 C 42.25 -1.101562 41.570312 -1.832031 40.875 -2.84375 L 30.609375 -18.15625 C 30.160156 -18.726562 29.875 -19.34375 29.75 -20 C 29.625 -20.664062 29.5625 -21.664062 29.5625 -23 L 29.5625 -30.609375 C 29.5625 -31.492188 29.75 -32.171875 30.125 -32.640625 C 30.507812 -33.117188 31.238281 -33.359375 32.3125 -33.359375 L 34.21875 -33.359375 C 36.5625 -33.359375 38.648438 -34.085938 40.484375 -35.546875 C 42.328125 -37.003906 43.25 -38.84375 43.25 -41.0625 C 43.25 -43.53125 42.40625 -45.492188 40.71875 -46.953125 C 39.039062 -48.410156 36.96875 -49.140625 34.5 -49.140625 L 21.859375 -49.140625 L 21.859375 -2.75 C 21.859375 -1.675781 21.617188 -0.945312 21.140625 -0.5625 C 20.671875 -0.1875 19.992188 0 19.109375 0 L 9.6875 0 C 8.863281 0 8.210938 -0.1875 7.734375 -0.5625 C 7.265625 -0.945312 7.03125 -1.675781 7.03125 -2.75 L 7.03125 -59.6875 C 7.03125 -60.570312 7.203125 -61.253906 7.546875 -61.734375 C 7.898438 -62.210938 8.613281 -62.453125 9.6875 -62.453125 L 33.640625 -62.453125 C 37.128906 -62.453125 40.015625 -62.226562 42.296875 -61.78125 C 44.578125 -61.332031 46.523438 -60.648438 48.140625 -59.734375 C 49.753906 -58.816406 51.226562 -57.691406 52.5625 -56.359375 C 54.332031 -54.648438 55.691406 -52.492188 56.640625 -49.890625 C 57.597656 -47.296875 58.078125 -44.476562 58.078125 -41.4375 C 58.078125 -38.144531 57.378906 -35.195312 55.984375 -32.59375 C 54.585938 -30 52.875 -27.847656 50.84375 -26.140625 C 48.820312 -24.429688 46.828125 -23.226562 44.859375 -22.53125 Z M 58.265625 -3.046875 "/></g></g></g></g></g><g clip-path="url(#07570fff83)"><path fill="#008051" d="M 37.453125 80.175781 C 18 80.175781 2.226562 64.402344 2.226562 44.949219 C 2.226562 25.492188 18 9.722656 37.453125 9.722656 C 56.910156 9.722656 72.679688 25.492188 72.679688 44.949219 C 72.679688 64.402344 56.910156 80.175781 37.453125 80.175781 Z M 37.453125 80.175781 " fill-opacity="1" fill-rule="nonzero"/></g><path fill="#f4f4f4" d="M 26.542969 55.113281 L 26.542969 37.253906 C 26.542969 34.511719 29.429688 32.730469 31.878906 33.957031 L 49.738281 42.886719 C 52.457031 44.246094 52.457031 48.125 49.738281 49.484375 L 31.878906 58.414062 C 29.429688 59.640625 26.542969 57.855469 26.542969 55.113281 Z M 26.542969 55.113281 " fill-opacity="1" fill-rule="nonzero"/></svg>