<svg width="1855" height="313" viewBox="0 0 1855 313" fill="none" xmlns="http://www.w3.org/2000/svg">
<path fill-rule="evenodd" clip-rule="evenodd" d="M75.5811 7.51276C72.9304 7.96475 67.7876 9.54191 64.1517 11.0186C44.6129 18.9547 29.3398 36.6293 24.7078 56.6622C23.8253 60.4823 17.7272 107.124 11.1579 160.31C0.120492 249.674 -0.702025 257.605 0.330391 264.816C2.8868 282.687 14.6793 297.081 32.2078 303.725L38.6326 306.16L139.304 306.467C228.29 306.738 240.964 306.575 248.488 305.059C265.66 301.598 282.081 290.412 291.243 275.932C294.568 270.676 298.852 260.337 299.805 255.268C301.977 243.717 324.106 61.2196 324.155 54.4653C324.249 41.0595 319.079 29.3237 308.809 19.6332C302.46 13.643 293.509 9.02688 285.187 7.45185C278.802 6.24441 82.6998 6.30104 75.5811 7.51276Z" fill="#29D980"/>
<path d="M88.9365 134.498C97.521 144.108 96.6903 158.857 87.081 167.441C77.4717 176.026 62.7226 175.195 54.138 165.586C45.5534 155.976 46.3841 141.227 55.9935 132.643C65.6028 124.058 80.3519 124.889 88.9365 134.498Z" fill="white"/>
<path d="M136.395 92.1008C144.98 101.71 144.149 116.459 134.54 125.044C124.93 133.628 110.181 132.798 101.597 123.188C93.0119 113.579 93.8426 98.8299 103.452 90.2453C113.061 81.6608 127.81 82.4915 136.395 92.1008Z" fill="white"/>
<path d="M183.853 49.7034C192.438 59.3127 191.607 74.0618 181.998 82.6464C172.388 91.231 157.639 90.4003 149.055 80.7909C140.47 71.1816 141.301 56.4325 150.91 47.8479C160.519 39.2634 175.268 40.0941 183.853 49.7034Z" fill="white"/>
<path d="M131.612 182.268C140.197 191.877 139.366 206.626 129.757 215.211C120.147 223.796 105.398 222.965 96.8138 213.356C88.2292 203.746 89.0599 188.997 98.6692 180.413C108.279 171.828 123.028 172.659 131.612 182.268Z" fill="white"/>
<path d="M179.071 139.871C187.655 149.48 186.825 164.229 177.215 172.814C167.606 181.398 152.857 180.568 144.272 170.958C135.688 161.349 136.518 146.6 146.128 138.015C155.737 129.431 170.486 130.261 179.071 139.871Z" fill="white"/>
<path d="M226.529 97.4733C235.113 107.083 234.283 121.832 224.673 130.416C215.064 139.001 200.315 138.17 191.73 128.561C183.146 118.952 183.976 104.202 193.586 95.6178C203.195 87.0333 217.944 87.864 226.529 97.4733Z" fill="white"/>
<path d="M174.288 230.038C182.872 239.647 182.041 254.396 172.432 262.981C162.823 271.566 148.074 270.735 139.489 261.126C130.904 251.516 131.735 236.767 141.345 228.183C150.954 219.598 165.703 220.429 174.288 230.038Z" fill="white"/>
<path d="M221.746 187.641C230.331 197.25 229.5 211.999 219.891 220.584C210.281 229.168 195.532 228.337 186.948 218.728C178.363 209.119 179.194 194.37 188.803 185.785C198.412 177.201 213.161 178.031 221.746 187.641Z" fill="white"/>
<path d="M269.205 145.243C277.789 154.853 276.958 169.602 267.349 178.186C257.74 186.771 242.991 185.94 234.406 176.331C225.821 166.721 226.652 151.972 236.262 143.388C245.871 134.803 260.62 135.634 269.205 145.243Z" fill="white"/>
<path fill-rule="evenodd" clip-rule="evenodd" d="M598.675 1.12372C597.159 1.43024 592.365 3.37629 588.022 5.44803C577.885 10.2839 569.167 19.5423 565.456 29.4147C561.615 39.6356 561.804 51.7661 565.935 60.1799C569.704 67.8549 576.586 74.1385 584.237 76.8894C592.874 79.9954 608.006 79.0681 616.699 74.9015C625.433 70.7139 634.503 61.4269 638.74 52.3307C641.717 45.9401 642.132 43.8574 642.164 35.136C642.195 26.7421 641.784 24.3936 639.501 19.9017C636.202 13.413 628.872 6.47011 622.207 3.52293C617.247 1.3277 604.228 0.00130123 598.675 1.12372Z" fill="#042012"/>
<path fill-rule="evenodd" clip-rule="evenodd" d="M1661.01 1.97497C1645.28 6.44481 1632.43 19.1288 1628.54 34.0335C1627.91 36.4591 1627.39 41.7791 1627.38 45.8542C1627.37 58.4368 1633.3 68.3291 1644.94 75.175C1649.59 77.9039 1650.93 78.1365 1662.11 78.1365C1672.98 78.1365 1674.9 77.8278 1680.58 75.164C1688.36 71.5189 1698.42 62.2087 1701.81 55.5172C1715.08 29.3365 1701.61 2.44356 1674.45 0.867983C1669.55 0.583519 1664.42 1.00581 1661.01 1.97497Z" fill="#042012"/>
<path fill-rule="evenodd" clip-rule="evenodd" d="M449.276 6.61798C448.063 6.86275 444.094 7.63787 440.455 8.34131C413.129 13.6193 386.636 34.5253 372.935 61.6222C369.323 68.7669 365.093 82.5248 363.352 92.7964C362.457 98.0745 356.245 146.799 349.547 201.074C342.85 255.348 337.096 301.373 336.763 303.352L336.156 306.95L374.507 306.66L412.858 306.37L419.466 253.171L426.076 199.971H468.774H511.471L512.082 196.388C512.693 192.806 520.392 131.376 520.392 130.088C520.392 129.713 501.131 129.406 477.589 129.406H434.786L436.743 114.001C439.316 93.738 440.306 90.4138 445.226 85.4941C451.644 79.076 454.316 78.6879 492.063 78.6879C510.604 78.6879 526.035 78.2667 526.353 77.7507C526.672 77.2358 528.686 62.7226 530.83 45.5003C532.973 28.2781 535.019 12.3271 535.375 10.0525L536.022 5.91785L493.751 6.04575C470.502 6.11631 450.488 6.37431 449.276 6.61798Z" fill="#042012"/>
<path fill-rule="evenodd" clip-rule="evenodd" d="M897.473 6.61574C887.353 7.30374 860.987 10.3921 853.37 11.7813L846.203 13.089L828.471 155.319C818.717 233.546 810.455 299.658 810.107 302.235L809.477 306.921H843.502H877.526L878.152 303.338C878.496 301.366 881.51 277.427 884.851 250.138C888.193 222.85 891.142 199.778 891.407 198.869C891.981 196.894 897.189 155.703 897.958 147.048C898.255 143.712 900.608 123.77 903.188 102.731L907.879 64.4778L915.043 63.7104C926.204 62.5152 957.671 63.9773 965.198 66.0402C979.742 70.0271 989.958 77.7297 992.317 86.4874C994.886 96.0291 992.861 112.871 988.247 120.339C985.14 125.368 977.636 132.779 973.473 134.932C963.106 140.292 940.415 144.803 923.659 144.832C920.779 144.838 918.419 144.967 918.416 145.118C918.411 145.269 916.926 157.053 915.114 171.304C913.303 185.555 911.818 197.587 911.813 198.042C911.81 198.496 914.759 198.869 918.369 198.869C924.853 198.869 924.969 198.924 928.124 203.555C936.335 215.609 956.25 252.846 963.947 270.536C965.634 274.41 973.446 291.902 977.859 301.684L980.221 306.921H1018.23C1039.14 306.921 1056.24 306.618 1056.24 306.246C1056.24 305.015 1048.37 284.511 1042.75 271.087C1032.87 247.524 1015.22 213.753 1001.02 191.244C998.636 187.459 997.729 185.115 998.546 184.842C1003.41 183.216 1018.32 175.19 1024.43 170.913C1048.38 154.138 1060.55 132.314 1064.05 99.8793C1068.6 57.5967 1050.01 29.1899 1008.83 15.5135C986.538 8.10752 976.469 6.83184 937.717 6.49776C918.918 6.33679 900.808 6.38971 897.473 6.61574Z" fill="#042012"/>
<path fill-rule="evenodd" clip-rule="evenodd" d="M1362.26 8.39864C1360.47 16.6382 1336.29 218.537 1336.29 225.24C1336.31 251.45 1347.82 274.827 1367.94 289.532C1389.11 305.006 1414.27 312.46 1445.17 312.415C1468.19 312.381 1486.3 308.204 1505.45 298.519C1539.82 281.126 1562.67 252.768 1572.4 215.407C1575.62 203.023 1576.39 178.963 1573.94 166.894C1566.95 132.446 1546.69 110.886 1508.85 97.6158C1492.03 91.717 1458.74 91.5064 1443.25 97.2023C1440.53 98.2012 1440.43 98.693 1436.54 129.523C1434.37 146.742 1432.7 160.979 1432.83 161.161C1432.96 161.342 1436.23 160.406 1440.09 159.08C1449.88 155.717 1467.04 154.934 1475.71 157.455C1493.03 162.491 1503.47 175.346 1504.69 193.141C1506.37 217.846 1491.15 239.16 1465.85 247.496C1459.11 249.718 1440.59 249.35 1433.88 246.859C1417.08 240.626 1408.68 226.588 1408.79 204.933C1408.82 199.246 1413.83 155.144 1420.53 101.61C1426.96 50.2414 1432.22 7.6963 1432.22 7.06453C1432.22 6.29493 1420.82 5.91785 1397.51 5.91785H1362.8L1362.26 8.39864Z" fill="#042012"/>
<path fill-rule="evenodd" clip-rule="evenodd" d="M678.651 49.194C676.911 59.3685 654.907 240.646 654.907 244.807C654.907 257.654 661.316 275.946 669.296 285.877C676.79 295.201 692.146 303.247 707.279 305.778C712.101 306.584 724.302 306.938 739.791 306.719L764.585 306.37L768.12 277.703C770.065 261.936 771.684 247.796 771.717 246.279L771.778 243.523L757.17 243.474C735.672 243.403 728.074 240.32 725.35 230.563C724.24 226.589 724.586 221.39 727.647 196.112C729.629 179.739 731.505 164.73 731.814 162.759L732.376 159.176H756.99H781.603L782.212 155.593C782.986 151.038 789.421 99.2586 789.421 97.5816C789.421 96.6841 782.542 96.3291 765.164 96.3291C741.039 96.3291 740.908 96.3159 740.908 93.9464C740.908 92.6355 742.161 81.6946 743.694 69.6324C745.226 57.5702 746.189 47.2314 745.834 46.6558C745.45 46.0351 731.814 45.6106 712.225 45.6106H679.264L678.651 49.194Z" fill="#042012"/>
<path fill-rule="evenodd" clip-rule="evenodd" d="M1743.78 46.5918C1742.4 48.8168 1720 233.932 1720 243.066C1720 256.103 1721.48 262.584 1727.2 274.512C1733 286.594 1740.31 293.918 1752.38 299.725C1765.09 305.837 1772.68 306.921 1802.76 306.921C1823.13 306.921 1829.15 306.607 1829.16 305.543C1829.16 304.601 1836.75 243.523 1836.86 243.523C1836.86 243.523 1830.04 243.471 1821.71 243.408C1796.39 243.216 1790.39 239.764 1789.64 224.956C1789.28 217.846 1795.41 162.281 1796.8 160.003C1797.08 159.549 1808.44 159.176 1822.05 159.176C1839.79 159.176 1846.79 158.821 1846.79 157.923C1846.79 156.246 1853.23 104.467 1854 99.9124L1854.61 96.3291H1829.75C1816.08 96.3291 1804.91 95.9564 1804.94 95.5021C1804.97 95.0479 1806.36 83.8755 1808.05 70.6765C1809.73 57.4776 1810.87 46.4386 1810.57 46.1442C1809.59 45.1607 1744.39 45.5973 1743.78 46.5918Z" fill="#042012"/>
<path fill-rule="evenodd" clip-rule="evenodd" d="M560.085 98.9489C560.085 99.1771 554.379 145.328 547.405 201.506C540.431 257.683 534.726 304.384 534.726 305.284C534.726 306.697 539.479 306.921 569.457 306.921C588.559 306.921 604.213 306.797 604.243 306.646C604.274 306.494 610.125 259.607 617.247 202.452L630.195 98.5343H595.14C575.859 98.5343 560.085 98.7206 560.085 98.9489Z" fill="#042012"/>
<path fill-rule="evenodd" clip-rule="evenodd" d="M1624.66 101.015C1624.36 102.379 1618.63 148.15 1611.94 202.728C1605.25 257.305 1599.52 303.075 1599.22 304.44L1598.67 306.921H1633.97C1654.44 306.921 1669.28 306.5 1669.28 305.918C1669.28 305.367 1674.98 259.099 1681.95 203.103C1688.93 147.106 1694.63 100.671 1694.63 99.9125C1694.64 98.8386 1686.96 98.5343 1659.93 98.5343H1625.21L1624.66 101.015Z" fill="#042012"/>
<path d="M1189.65 95.1889C1200.38 92.6376 1221.83 92.3988 1232.8 94.7065C1243.49 96.9546 1249.38 99.0298 1257.99 103.583C1281.75 116.145 1298.02 136.316 1306.12 163.262C1308.68 171.796 1309.03 174.876 1309.05 188.946C1309.06 202.741 1308.67 206.445 1306.15 215.958C1302.51 229.766 1293.4 248.518 1284.73 260.08C1260.42 292.472 1222.68 312.427 1185.72 312.433C1146.14 312.439 1110.59 288.995 1096.58 253.646C1091.03 239.638 1089.05 227.609 1089.66 211.548C1090.84 180.363 1102.56 154.797 1126.81 130.482C1144.92 112.327 1164.98 101.06 1189.65 95.1889ZM1221.3 162.023C1215.55 159.239 1204.89 157.751 1197.92 158.761C1183.66 160.828 1169.8 171.592 1162.6 186.189C1150.96 209.785 1158.78 236.238 1179.73 244.188C1184.69 246.071 1187.62 246.412 1195.83 246.065C1204.41 245.702 1206.91 245.124 1213.1 242.081C1222.87 237.271 1231.58 228.374 1236.74 217.919C1240.39 210.534 1240.88 208.525 1241.29 199.287C1241.67 190.514 1241.36 187.914 1239.25 182.272C1236.11 173.886 1228.83 165.667 1221.3 162.023Z" fill="#042012"/>
</svg>
