<svg xmlns="http://www.w3.org/2000/svg" xmlns:xlink="http://www.w3.org/1999/xlink" width="100" zoomAndPan="magnify" viewBox="0 0 75 74.999997" height="100" preserveAspectRatio="xMidYMid meet" version="1.0"><defs><clipPath id="07b9964fb7"><path d="M 1.175781 3 L 74 3 L 74 71 L 1.175781 71 Z M 1.175781 3 " clip-rule="nonzero"/></clipPath></defs><g clip-path="url(#07b9964fb7)"><path fill="#29d980" d="M 18.125 4.046875 C 17.53125 4.148438 16.378906 4.5 15.566406 4.832031 C 11.191406 6.605469 7.769531 10.554688 6.730469 15.035156 C 6.535156 15.886719 5.167969 26.316406 3.699219 38.207031 C 1.226562 58.183594 1.042969 59.957031 1.273438 61.570312 C 1.84375 65.5625 4.484375 68.78125 8.410156 70.265625 L 9.851562 70.8125 L 32.398438 70.878906 C 52.328125 70.941406 55.164062 70.902344 56.851562 70.566406 C 60.695312 69.792969 64.375 67.289062 66.425781 64.054688 C 67.171875 62.878906 68.128906 60.566406 68.34375 59.433594 C 68.832031 56.851562 73.785156 16.054688 73.796875 14.542969 C 73.816406 11.546875 72.660156 8.921875 70.359375 6.757812 C 68.9375 5.417969 66.933594 4.386719 65.070312 4.03125 C 63.640625 3.761719 19.71875 3.777344 18.125 4.046875 Z M 18.125 4.046875 " fill-opacity="1" fill-rule="evenodd"/></g><path fill="#ffffff" d="M 21.117188 32.433594 C 23.039062 34.582031 22.855469 37.878906 20.703125 39.800781 C 18.550781 41.71875 15.246094 41.535156 13.324219 39.386719 C 11.402344 37.238281 11.585938 33.9375 13.738281 32.019531 C 15.890625 30.101562 19.195312 30.285156 21.117188 32.433594 Z M 21.117188 32.433594 " fill-opacity="1" fill-rule="nonzero"/><path fill="#ffffff" d="M 31.746094 22.957031 C 33.667969 25.105469 33.484375 28.402344 31.332031 30.320312 C 29.179688 32.242188 25.875 32.054688 23.953125 29.90625 C 22.03125 27.757812 22.214844 24.460938 24.367188 22.542969 C 26.519531 20.621094 29.824219 20.808594 31.746094 22.957031 Z M 31.746094 22.957031 " fill-opacity="1" fill-rule="nonzero"/><path fill="#ffffff" d="M 42.375 13.476562 C 44.296875 15.625 44.113281 18.925781 41.960938 20.84375 C 39.808594 22.761719 36.503906 22.578125 34.582031 20.429688 C 32.660156 18.28125 32.84375 14.984375 34.996094 13.0625 C 37.148438 11.144531 40.453125 11.332031 42.375 13.476562 Z M 42.375 13.476562 " fill-opacity="1" fill-rule="nonzero"/><path fill="#ffffff" d="M 30.675781 43.113281 C 32.597656 45.261719 32.410156 48.558594 30.257812 50.480469 C 28.105469 52.398438 24.804688 52.210938 22.882812 50.0625 C 20.957031 47.914062 21.144531 44.617188 23.296875 42.699219 C 25.449219 40.78125 28.753906 40.964844 30.675781 43.113281 Z M 30.675781 43.113281 " fill-opacity="1" fill-rule="nonzero"/><path fill="#ffffff" d="M 41.304688 33.636719 C 43.226562 35.785156 43.039062 39.082031 40.886719 41 C 38.734375 42.921875 35.433594 42.734375 33.511719 40.585938 C 31.585938 38.4375 31.773438 35.140625 33.925781 33.222656 C 36.078125 31.300781 39.382812 31.488281 41.304688 33.636719 Z M 41.304688 33.636719 " fill-opacity="1" fill-rule="nonzero"/><path fill="#ffffff" d="M 51.933594 24.15625 C 53.855469 26.304688 53.667969 29.601562 51.515625 31.523438 C 49.363281 33.441406 46.0625 33.257812 44.140625 31.109375 C 42.214844 28.960938 42.402344 25.664062 44.554688 23.742188 C 46.707031 21.824219 50.011719 22.007812 51.933594 24.15625 Z M 51.933594 24.15625 " fill-opacity="1" fill-rule="nonzero"/><path fill="#ffffff" d="M 40.234375 53.792969 C 42.15625 55.941406 41.96875 59.238281 39.816406 61.160156 C 37.664062 63.078125 34.363281 62.890625 32.4375 60.742188 C 30.515625 58.59375 30.703125 55.296875 32.855469 53.378906 C 35.007812 51.460938 38.308594 51.644531 40.234375 53.792969 Z M 40.234375 53.792969 " fill-opacity="1" fill-rule="nonzero"/><path fill="#ffffff" d="M 50.863281 44.316406 C 52.785156 46.464844 52.597656 49.761719 50.445312 51.679688 C 48.292969 53.597656 44.992188 53.414062 43.066406 51.265625 C 41.144531 49.117188 41.332031 45.820312 43.484375 43.902344 C 45.636719 41.980469 48.9375 42.167969 50.863281 44.316406 Z M 50.863281 44.316406 " fill-opacity="1" fill-rule="nonzero"/><path fill="#ffffff" d="M 61.492188 34.835938 C 63.414062 36.984375 63.226562 40.28125 61.074219 42.203125 C 58.921875 44.121094 55.621094 43.933594 53.695312 41.785156 C 51.773438 39.640625 51.960938 36.339844 54.113281 34.421875 C 56.265625 32.503906 59.566406 32.6875 61.492188 34.835938 Z M 61.492188 34.835938 " fill-opacity="1" fill-rule="nonzero"/></svg>